<svg xmlns="http://www.w3.org/2000/svg" viewBox="0 0 24 24" aria-hidden="true"><path d="M19.03,12.3933333 C18.9846568,12.222153 18.8730712,12.0760462 18.719861,11.9872468 C18.5666508,11.8984474 18.3844061,11.8742526 18.2133333,11.92 L16.6666667,12.3333333 C16.2536886,12.4215825 15.8229228,12.3650886 15.4466667,12.1733333 L12.2433333,10.3333333 C12.1018563,10.2835945 12.0071893,10.1499657 12.0071893,10 C12.0071893,9.85003431 12.1018563,9.71640546 12.2433333,9.66666667 L15.4366667,7.82333333 C15.8161929,7.63037815 16.2508891,7.57501034 16.6666667,7.66666667 L18.2233333,8.08333333 C18.3944061,8.12908078 18.5766508,8.10488589 18.729861,8.01608649 C18.8830712,7.92728709 18.9946568,7.78118033 19.04,7.61 L19.2133333,6.96666667 C19.2590808,6.79559394 19.2348859,6.61334921 19.1460865,6.46013899 C19.0572871,6.30692876 18.9111803,6.19534316 18.74,6.15 L17.74,5.88666667 C17.3848395,5.79075192 17.1745026,5.42527294 17.27,5.07 L17.5366667,4.07 C17.5824141,3.89892727 17.5582192,3.71668255 17.4694198,3.56347232 C17.3806204,3.41026209 17.2345137,3.29867649 17.0633333,3.25333333 L16.42,3.08 C16.2489273,3.03425255 16.0666825,3.05844745 15.9134723,3.14724684 C15.7602621,3.23604624 15.6486765,3.38215301 15.6033333,3.55333333 L15.1866667,5.10666667 C15.0552896,5.50818824 14.7906754,5.85277467 14.4366667,6.08333333 L11.2433333,7.93333333 C10.9266667,8.11666667 10.6666667,7.96666667 10.6666667,7.6 L10.6666667,3.91333333 C10.6904185,3.49222676 10.8560834,3.0915761 11.1366667,2.77666667 L12.2766667,1.63666667 C12.5351491,1.3766417 12.5351491,0.956691636 12.2766667,0.696666667 L11.8033333,0.223333333 C11.5433084,-0.0351490631 11.1233583,-0.0351490631 10.8633333,0.223333333 L10.1366667,0.946666667 C9.8766417,1.20514906 9.45669164,1.20514906 9.19666667,0.946666667 L8.47,0.223333333 C8.20997503,-0.0351490631 7.79002497,-0.0351490631 7.53,0.223333333 L7.05666667,0.696666667 C6.79818427,0.956691636 6.79818427,1.3766417 7.05666667,1.63666667 L8.19666667,2.77666667 C8.47724989,3.0915761 8.64291483,3.49222676 8.66666667,3.91333333 L8.66666667,7.6 C8.66666667,7.96666667 8.40666667,8.11666667 8.09,7.93333333 L4.89666667,6.09 C4.5426579,5.85944134 4.27804374,5.5148549 4.14666667,5.11333333 L3.73,3.56 C3.68465684,3.38881967 3.57307124,3.24271291 3.41986101,3.15391351 C3.26665079,3.06511411 3.08440606,3.04091922 2.91333333,3.08666667 L2.27,3.26 C2.09881967,3.30534316 1.95271291,3.41692876 1.86391351,3.57013899 C1.77511411,3.72334921 1.75091922,3.90559394 1.79666667,4.07666667 L2.06333333,5.07666667 C2.1588307,5.4319396 1.94849382,5.79741859 1.59333333,5.89333333 L0.593333333,6.15666667 C0.422153007,6.20200983 0.276046238,6.31359543 0.187246842,6.46680565 C0.0984474459,6.62001588 0.0742525538,6.80226061 0.12,6.97333333 L0.293333333,7.61666667 C0.338676493,7.78784699 0.450262094,7.93395376 0.603472319,8.02275316 C0.756682545,8.11155255 0.938927275,8.13574745 1.11,8.09 L2.66666667,7.66666667 C3.07964472,7.57841751 3.51041051,7.63491139 3.88666667,7.82666667 L7.09,9.66666667 C7.23147707,9.71640546 7.32614403,9.85003431 7.32614403,10 C7.32614403,10.1499657 7.23147707,10.2835945 7.09,10.3333333 L3.89666667,12.1766667 C3.51714046,12.3696218 3.08244421,12.4249897 2.66666667,12.3333333 L1.11,11.9166667 C0.938927275,11.8709192 0.756682545,11.8951141 0.603472319,11.9839135 C0.450262094,12.0727129 0.338676493,12.2188197 0.293333333,12.39 L0.12,13.0333333 C0.0742525538,13.2044061 0.0984474459,13.3866508 0.187246842,13.539861 C0.276046238,13.6930712 0.422153007,13.8046568 0.593333333,13.85 L1.59333333,14.1133333 C1.94849382,14.2092481 2.1588307,14.5747271 2.06333333,14.93 L1.79666667,15.93 C1.75091922,16.1010727 1.77511411,16.2833175 1.86391351,16.4365277 C1.95271291,16.5897379 2.09881967,16.7013235 2.27,16.7466667 L2.91333333,16.92 C3.08440606,16.9657474 3.26665079,16.9415526 3.41986101,16.8527532 C3.57307124,16.7639538 3.68465684,16.617847 3.73,16.4466667 L4.14666667,14.8933333 C4.27804374,14.4918118 4.5426579,14.1472253 4.89666667,13.9166667 L8.09,12.0733333 C8.40666667,11.89 8.66666667,12.04 8.66666667,12.4066667 L8.66666667,16.0866667 C8.64291483,16.5077732 8.47724989,16.9084239 8.19666667,17.2233333 L7.05666667,18.3633333 C6.79818427,18.6233583 6.79818427,19.0433084 7.05666667,19.3033333 L7.53,19.7766667 C7.79002497,20.0351491 8.20997503,20.0351491 8.47,19.7766667 L9.19666667,19.0533333 C9.45669164,18.7948509 9.8766417,18.7948509 10.1366667,19.0533333 L10.8633333,19.7766667 C11.1233583,20.0351491 11.5433084,20.0351491 11.8033333,19.7766667 L12.2766667,19.3033333 C12.5351491,19.0433084 12.5351491,18.6233583 12.2766667,18.3633333 L11.1366667,17.2233333 C10.8560834,16.9084239 10.6904185,16.5077732 10.6666667,16.0866667 L10.6666667,12.4 C10.6666667,12.0333333 10.9266667,11.8833333 11.2433333,12.0666667 L14.4366667,13.91 C14.7906754,14.1405587 15.0552896,14.4851451 15.1866667,14.8866667 L15.6033333,16.44 C15.6486765,16.6111803 15.7602621,16.7572871 15.9134723,16.8460865 C16.0666825,16.9348859 16.2489273,16.9590808 16.42,16.9133333 L17.0633333,16.74 C17.2345137,16.6946568 17.3806204,16.5830712 17.4694198,16.429861 C17.5582192,16.2766508 17.5824141,16.0944061 17.5366667,15.9233333 L17.27,14.9233333 C17.1745026,14.5680604 17.3848395,14.2025814 17.74,14.1066667 L18.74,13.8433333 C18.9111803,13.7979902 19.0572871,13.6864046 19.1460865,13.5331943 C19.2348859,13.3799841 19.2590808,13.1977394 19.2133333,13.0266667 L19.03,12.3933333 Z"></path></svg>
